<svg width="15" height="15" viewBox="0 0 15 15" fill="none" xmlns="http://www.w3.org/2000/svg">
<path d="M6.54894 1.45635C6.8483 0.535036 8.1517 0.535037 8.45106 1.45635L9.52063 4.74814C9.6545 5.16017 10.0385 5.43913 10.4717 5.43913H13.9329C14.9016 5.43913 15.3044 6.67874 14.5207 7.24814L11.7205 9.28259C11.37 9.53723 11.2234 9.9886 11.3572 10.4006L12.4268 13.6924C12.7261 14.6137 11.6717 15.3799 10.888 14.8104L8.08778 12.776C7.7373 12.5214 7.2627 12.5214 6.91221 12.776L4.11204 14.8104C3.32833 15.3799 2.27385 14.6137 2.5732 13.6924L3.64277 10.4006C3.77665 9.9886 3.62999 9.53723 3.2795 9.28259L0.479333 7.24814C-0.304381 6.67874 0.0983949 5.43913 1.06712 5.43913H4.52832C4.96154 5.43913 5.3455 5.16017 5.47937 4.74814L6.54894 1.45635Z" fill="#FFA722"/>
</svg>
