<svg width="25" height="20" viewBox="0 0 25 20" fill="none" xmlns="http://www.w3.org/2000/svg">
<path d="M24.3608 2.85758C23.4728 3.24314 22.5333 3.49716 21.5719 3.6116C22.5823 3.0204 23.3421 2.08117 23.7088 0.970074C22.7536 1.52824 21.7103 1.91987 20.6236 2.1282C20.1659 1.64895 19.6156 1.26769 19.0059 1.0076C18.3962 0.747509 17.74 0.614018 17.0771 0.615243C14.3933 0.615243 12.2213 2.75409 12.2213 5.39068C12.2194 5.75742 12.2615 6.12307 12.3466 6.47982C10.4221 6.38966 8.5376 5.89907 6.81369 5.03943C5.08978 4.17978 3.56441 2.97002 2.33518 1.48754C1.90394 2.21401 1.67588 3.0429 1.67482 3.88758C1.67482 5.54346 2.53936 7.00714 3.84479 7.86465C3.07136 7.8463 2.31378 7.64174 1.63636 7.26833V7.32747C1.63636 9.64373 3.31315 11.5707 5.53243 12.0093C5.1151 12.1204 4.68504 12.1768 4.25314 12.1768C3.94667 12.1774 3.6409 12.1477 3.34027 12.0881C3.95723 13.9855 5.75288 15.3654 7.87994 15.4048C6.15155 16.7359 4.02954 17.4553 1.84744 17.45C1.46011 17.4494 1.07314 17.4264 0.688477 17.381C2.90834 18.7975 5.48876 19.5468 8.12258 19.5396C17.0668 19.5396 21.9531 12.2606 21.9531 5.94757C21.9531 5.74059 21.9477 5.5336 21.9379 5.33154C22.8863 4.65739 23.7068 3.81962 24.3608 2.85758Z" fill="white"/>
</svg>
